#N canvas 136 181 886 553 10;
#X obj 65 -39 bng 15 250 50 0 empty empty empty 0 -6 0 8 -262144 -1
-1;
#X floatatom 65 1 7 0 0 0 - - -;
#X floatatom 95 -43 5 0 0 0 - - -;
#X obj 60 -115 tgl 15 0 empty empty empty 17 7 0 10 -262144 -1 -1 0
1;
#X floatatom 88 -110 5 0 0 0 - - -;
#X obj -21 82 moses 100;
#X floatatom -20 113 5 0 0 0 - - -;
#X obj 72 85 moses 100;
#X floatatom 73 116 5 0 0 0 - - -;
#X obj 72 64 spigot;
#X obj 96 46 tgl 15 0 empty empty empty 17 7 0 10 -262144 -1 -1 1 1
;
#X obj -20 61 spigot;
#X obj 4 43 tgl 15 0 empty empty empty 17 7 0 10 -262144 -1 -1 1 1
;
#X obj 164 88 moses 100;
#X floatatom 165 119 5 0 0 0 - - -;
#X obj 164 67 spigot;
#X obj 188 49 tgl 15 0 empty empty empty 17 7 0 10 -262144 -1 -1 1
1;
#X floatatom 197 11 5 0 0 0 - - -;
#X obj 61 -86 metro 42;
#X obj 65 -20 random 1028;
#X obj 115 209 spigot;
#X obj 139 191 tgl 15 0 empty empty empty 17 7 0 10 -262144 -1 -1 1
1;
#X obj 25 207 spigot;
#X obj 52 189 tgl 15 0 empty empty empty 17 7 0 10 -262144 -1 -1 1
1;
#X msg 297 65 51;
#X msg 365 66 77;
#X msg 397 68 125;
#X msg 330 65 57;
#X text 252 64 A;
#X text 251 87 B;
#X text 250 106 C;
#X text 251 121 D;
#X text 252 138 E;
#X text 252 155 F;
#X text 251 174 G;
#X text 252 191 H;
#X msg 301 89 83;
#X msg 269 89 127;
#X msg 338 89 80;
#X msg 370 90 78;
#X msg 403 91 71;
#X msg 431 92 70;
#X msg 464 92 69;
#X msg 291 -108 51;
#X msg 359 -107 77;
#X msg 391 -105 125;
#X msg 324 -108 57;
#X obj 368 39 pgmout 7;
#X msg 262 -109 30;
#X text 246 -109 A;
#X text 245 -86 B;
#X text 244 -67 C;
#X text 245 -52 D;
#X text 246 -35 E;
#X text 246 -18 F;
#X text 245 1 G;
#X text 246 18 H;
#X msg 295 -84 83;
#X msg 263 -84 127;
#X msg 332 -84 80;
#X msg 364 -83 78;
#X msg 397 -82 71;
#X msg 425 -81 70;
#X msg 458 -81 69;
#X obj 374 212 pgmout 8;
#X msg 267 20 57;
#X msg 273 194 57;
#X obj -14 172 bng 15 250 50 0 empty empty empty 0 -6 0 8 -262144 -1
-1;
#X msg -135 -88 disconnect;
#X obj -149 372 sendOSC;
#X floatatom -114 230 5 0 0 0 - - -;
#X msg -146 -108 connect 192.168.178.135 41234;
#X obj -20 260 vsl 15 128 0 1 0 0 empty empty empty 0 -9 0 10 -262144
-1 -1 100 1;
#X floatatom -19 396 5 0 0 0 - - -;
#X obj -114 204 spigot;
#X obj -90 186 tgl 15 0 empty empty empty 17 7 0 10 -262144 -1 -1 1
1;
#X msg 426 67 70;
#X floatatom -118 104 5 0 0 0 - - -;
#X obj -118 78 spigot;
#X obj -94 60 tgl 15 0 empty empty empty 17 7 0 10 -262144 -1 -1 1
1;
#X floatatom -128 -4 5 0 0 0 - - -;
#X obj -128 -30 spigot;
#X obj -104 -48 tgl 15 0 empty empty empty 17 7 0 10 -262144 -1 -1
1 1;
#X msg -126 20 send /n1 \$1;
#X msg -116 128 send /n2 \$1;
#X msg -112 254 send /n3 \$1;
#X msg 299 113 59;
#X msg 270 112 70;
#X msg 264 -63 70;
#X msg 293 -62 59;
#X msg 333 113 74;
#X msg 330 -60 74;
#X msg 361 115 76;
#X msg 366 -59 76;
#X msg 266 64 79;
#X msg 424 -106 79;
#X msg 458 66 80;
#X msg 456 -108 80;
#N canvas 909 46 478 347 presets 1;
#X text 217 81 H56 V-CUSS;
#X text 217 103 A33 Fiona;
#X text 216 116 A50 HongkongBC;
#X text 216 130 A76 oil-crwlSV;
#X text 216 144 A124X-waves NH;
#X text 216 159 B82 PinOrg HS;
#X text 312 81 B126XYrimba HS;
#X text 312 104 B79 PeaceOrgHS;
#X text 312 116 B77;
#X text 313 128 B70;
#X text 314 141 B69;
#X text 315 156 B68;
#X text 413 104 B59;
#X text 8 -109 PERCUSION BAJOS EFECTOS;
#X text 8 -81 H57;
#X text 79 -82 A91;
#X text 135 -81 A93;
#X text 135 -66 A94;
#X text 136 -52 A96;
#X text 138 -39 A109;
#X text 7 -64 A51;
#X text 137 -25 A122;
#X text 8 -49 B127;
#X text 137 -10 B107;
#X text 137 5 B84;
#X text 8 -33 B83;
#X text 80 -65 A91;
#X restore 152 -109 pd presets;
#X msg 490 65 93;
#X msg 520 65 94;
#X msg 550 68 96;
#X msg 573 65 109;
#X msg 601 63 122;
#X msg 497 91 107;
#X msg 533 89 84;
#X msg 238 355 0;
#X msg 264 367 126;
#X msg 240 307 0;
#X msg 271 309 126;
#X msg 301 305 2500;
#X msg 333 320 500;
#X obj 226 333 makenote 100 500;
#X obj 367 257 vsl 15 128 500 4500 0 0 empty empty empty 0 -9 0 10
-228856 -1 -1 0 1;
#X floatatom 367 394 5 0 0 0 - - -;
#X text 304 395 To VIRUS;
#X obj 232 394 noteout 8;
#X msg 40 357 0;
#X msg 66 369 126;
#X msg 42 309 0;
#X msg 73 311 126;
#X msg 103 307 2500;
#X msg 135 322 500;
#X obj 28 335 makenote 100 500;
#X obj 169 259 vsl 15 128 500 4500 0 0 empty empty empty 0 -9 0 10
-228856 -1 -1 0 1;
#X floatatom 169 396 5 0 0 0 - - -;
#X text 106 397 To VIRUS;
#X obj 34 396 noteout 7;
#X floatatom 121 12 5 0 0 0 - - -;
#X obj 145 32 t b;
#X obj 212 35 t b;
#X floatatom -3 9 5 0 0 0 - - -;
#X obj 19 19 t b;
#X msg -133 349 send /v1 \$1;
#X floatatom -56 -32 5 0 0 0 - - -;
#X obj -56 -54 m_scale 0 500 0 1;
#X obj -31 237 spigot;
#X obj -7 219 tgl 15 0 empty empty empty 17 7 0 10 -262144 -1 -1 0
1;
#X obj 26 57 / 18;
#X obj 119 60 / 12;
#X obj 211 64 / 4;
#X msg 631 64 20;
#X obj 608 258 textfile;
#X msg 630 206 rewind;
#X msg 630 233 bang;
#X msg 578 183 read numeros.txt cr;
#X floatatom 527 386 5 0 0 0 - - -;
#X obj 595 324 unpack f f f f f;
#X floatatom 565 385 5 0 0 0 - - -;
#X floatatom 603 387 5 0 0 0 - - -;
#X floatatom 643 387 5 0 0 0 - - -;
#X obj 578 361 sel 0 1 2 3;
#X floatatom 575 414 5 0 0 0 - - -;
#X obj 521 297 counter;
#X msg 509 255 min \$1;
#X msg 557 254 max \$1;
#X floatatom 509 234 5 0 0 0 - - -;
#X floatatom 557 233 5 0 0 0 - - -;
#X text 506 216 set min/max;
#X obj 561 274 bng 15 250 50 0 empty empty empty 0 -6 0 8 -262144 -1
-1;
#X obj 668 230 bng 15 250 50 0 empty empty empty 0 -6 0 8 -262144 -1
-1;
#X obj 656 360 t b;
#X floatatom 525 331 5 0 0 0 - - -;
#X obj 433 381 spigot;
#X obj 457 363 tgl 15 0 empty empty empty 17 7 0 10 -262144 -1 -1 0
1;
#X obj 646 106 spigot;
#X obj 670 88 tgl 15 0 empty empty empty 17 7 0 10 -262144 -1 -1 0
1;
#X msg 584 150 write random.txt cr;
#X msg 645 129 add2 \$1;
#X connect 0 0 19 0;
#X connect 1 0 9 0;
#X connect 1 0 11 0;
#X connect 1 0 15 0;
#X connect 2 0 19 1;
#X connect 2 0 138 0;
#X connect 2 0 139 0;
#X connect 2 0 140 0;
#X connect 3 0 18 0;
#X connect 4 0 18 1;
#X connect 5 0 6 0;
#X connect 6 0 20 0;
#X connect 6 0 22 0;
#X connect 6 0 67 0;
#X connect 6 0 81 0;
#X connect 6 0 135 0;
#X connect 7 0 8 0;
#X connect 8 0 20 0;
#X connect 8 0 22 0;
#X connect 8 0 67 0;
#X connect 8 0 78 0;
#X connect 9 0 7 0;
#X connect 10 0 9 1;
#X connect 11 0 5 0;
#X connect 12 0 11 1;
#X connect 13 0 14 0;
#X connect 14 0 20 0;
#X connect 14 0 22 0;
#X connect 14 0 67 0;
#X connect 14 0 74 0;
#X connect 15 0 13 0;
#X connect 16 0 15 1;
#X connect 17 0 130 0;
#X connect 17 0 140 1;
#X connect 18 0 0 0;
#X connect 19 0 1 0;
#X connect 20 0 112 0;
#X connect 20 0 165 0;
#X connect 21 0 20 1;
#X connect 22 0 123 0;
#X connect 23 0 22 1;
#X connect 24 0 64 0;
#X connect 25 0 64 0;
#X connect 26 0 64 0;
#X connect 27 0 64 0;
#X connect 36 0 64 0;
#X connect 37 0 64 0;
#X connect 38 0 64 0;
#X connect 39 0 64 0;
#X connect 40 0 64 0;
#X connect 41 0 64 0;
#X connect 42 0 64 0;
#X connect 43 0 47 0;
#X connect 44 0 47 0;
#X connect 45 0 47 0;
#X connect 46 0 47 0;
#X connect 48 0 47 0;
#X connect 57 0 47 0;
#X connect 58 0 47 0;
#X connect 59 0 47 0;
#X connect 60 0 47 0;
#X connect 61 0 47 0;
#X connect 62 0 47 0;
#X connect 63 0 47 0;
#X connect 65 0 47 0;
#X connect 66 0 64 0;
#X connect 67 0 153 0;
#X connect 68 0 69 0;
#X connect 70 0 85 0;
#X connect 71 0 69 0;
#X connect 72 0 73 0;
#X connect 73 0 133 0;
#X connect 74 0 70 0;
#X connect 75 0 74 1;
#X connect 76 0 64 0;
#X connect 77 0 84 0;
#X connect 78 0 77 0;
#X connect 79 0 78 1;
#X connect 80 0 83 0;
#X connect 81 0 80 0;
#X connect 82 0 81 1;
#X connect 83 0 69 0;
#X connect 84 0 69 0;
#X connect 85 0 69 0;
#X connect 86 0 64 0;
#X connect 87 0 64 0;
#X connect 88 0 47 0;
#X connect 89 0 47 0;
#X connect 90 0 64 0;
#X connect 91 0 47 0;
#X connect 92 0 64 0;
#X connect 93 0 47 0;
#X connect 94 0 64 0;
#X connect 95 0 47 0;
#X connect 96 0 64 0;
#X connect 97 0 47 0;
#X connect 99 0 64 0;
#X connect 100 0 64 0;
#X connect 101 0 64 0;
#X connect 102 0 64 0;
#X connect 103 0 64 0;
#X connect 104 0 64 0;
#X connect 105 0 64 0;
#X connect 106 0 116 1;
#X connect 107 0 116 1;
#X connect 108 0 112 1;
#X connect 109 0 112 1;
#X connect 110 0 112 2;
#X connect 111 0 112 2;
#X connect 112 0 116 0;
#X connect 112 1 116 1;
#X connect 113 0 114 0;
#X connect 113 0 112 2;
#X connect 117 0 127 1;
#X connect 118 0 127 1;
#X connect 119 0 123 1;
#X connect 120 0 123 1;
#X connect 121 0 123 2;
#X connect 122 0 123 2;
#X connect 123 0 127 0;
#X connect 123 1 127 1;
#X connect 124 0 125 0;
#X connect 124 0 123 2;
#X connect 128 0 129 0;
#X connect 128 0 139 1;
#X connect 129 0 2 0;
#X connect 130 0 2 0;
#X connect 131 0 132 0;
#X connect 131 0 138 1;
#X connect 132 0 2 0;
#X connect 133 0 69 0;
#X connect 134 0 136 0;
#X connect 135 0 134 0;
#X connect 136 0 72 0;
#X connect 137 0 136 1;
#X connect 138 0 5 1;
#X connect 138 0 135 2;
#X connect 139 0 7 1;
#X connect 140 0 13 1;
#X connect 141 0 64 0;
#X connect 142 0 147 0;
#X connect 143 0 142 0;
#X connect 144 0 142 0;
#X connect 145 0 142 0;
#X connect 146 0 152 0;
#X connect 147 0 146 0;
#X connect 147 1 148 0;
#X connect 147 2 149 0;
#X connect 147 3 150 0;
#X connect 148 0 152 0;
#X connect 149 0 152 0;
#X connect 150 0 152 0;
#X connect 151 0 146 0;
#X connect 151 1 148 0;
#X connect 151 2 149 0;
#X connect 151 3 150 0;
#X connect 151 4 161 0;
#X connect 152 0 163 0;
#X connect 153 0 162 0;
#X connect 154 0 153 0;
#X connect 155 0 153 0;
#X connect 156 0 154 0;
#X connect 157 0 155 0;
#X connect 159 0 153 2;
#X connect 160 0 144 0;
#X connect 161 0 160 0;
#X connect 162 0 151 0;
#X connect 163 0 83 0;
#X connect 163 0 123 0;
#X connect 163 0 112 0;
#X connect 164 0 163 1;
#X connect 165 0 168 0;
#X connect 166 0 165 1;
#X connect 167 0 142 0;
#X connect 168 0 142 0;
